<svg width="1200" height="630" viewBox="0 0 1200 630" fill="none" xmlns="http://www.w3.org/2000/svg">
  <!-- Background Gradient -->
  <defs>
    <linearGradient id="bgGradient" x1="0%" y1="0%" x2="100%" y2="100%">
      <stop offset="0%" style="stop-color:#7c3aed;stop-opacity:1" />
      <stop offset="50%" style="stop-color:#a855f7;stop-opacity:1" />
      <stop offset="100%" style="stop-color:#ec4899;stop-opacity:1" />
    </linearGradient>
    <linearGradient id="cardGradient" x1="0%" y1="0%" x2="100%" y2="100%">
      <stop offset="0%" style="stop-color:rgba(255,255,255,0.95);stop-opacity:1" />
      <stop offset="100%" style="stop-color:rgba(255,255,255,0.85);stop-opacity:1" />
    </linearGradient>
  </defs>
  
  <!-- Background -->
  <rect width="1200" height="630" fill="url(#bgGradient)"/>
  
  <!-- Decorative Elements -->
  <circle cx="100" cy="100" r="60" fill="rgba(255,255,255,0.1)"/>
  <circle cx="1100" cy="530" r="80" fill="rgba(255,255,255,0.1)"/>
  <rect x="900" y="50" width="200" height="200" rx="20" fill="rgba(255,255,255,0.05)" transform="rotate(15 1000 150)"/>
  
  <!-- Main Content Card -->
  <rect x="100" y="100" width="1000" height="430" rx="30" fill="url(#cardGradient)" stroke="rgba(255,255,255,0.3)" stroke-width="2"/>
  
  <!-- Logo Icon -->
  <rect x="150" y="150" width="80" height="80" rx="20" fill="#7c3aed"/>
  <rect x="170" y="170" width="40" height="40" rx="8" fill="white"/>
  <rect x="175" y="175" width="30" height="4" fill="#7c3aed"/>
  <rect x="175" y="185" width="25" height="4" fill="#7c3aed"/>
  <rect x="175" y="195" width="20" height="4" fill="#7c3aed"/>
  
  <!-- Main Title -->
  <text x="270" y="190" font-family="Arial, sans-serif" font-size="48" font-weight="bold" fill="#1f2937">CSVDROP</text>
  <text x="270" y="230" font-family="Arial, sans-serif" font-size="24" fill="#6b7280">Professional CSV File Consolidator</text>
  
  <!-- Features List -->
  <text x="150" y="300" font-family="Arial, sans-serif" font-size="20" font-weight="600" fill="#374151">✓ Merge Multiple CSV Files Instantly</text>
  <text x="150" y="340" font-family="Arial, sans-serif" font-size="20" font-weight="600" fill="#374151">✓ Advanced Data Deduplication</text>
  <text x="150" y="380" font-family="Arial, sans-serif" font-size="20" font-weight="600" fill="#374151">✓ Professional Column Filtering</text>
  <text x="150" y="420" font-family="Arial, sans-serif" font-size="20" font-weight="600" fill="#374151">✓ Unlimited Downloads (Pro Plan)</text>
  
  <!-- CTA -->
  <rect x="600" y="350" width="200" height="60" rx="15" fill="#7c3aed"/>
  <text x="700" y="385" font-family="Arial, sans-serif" font-size="18" font-weight="bold" fill="white" text-anchor="middle">Try Free Now</text>
  
  <!-- URL -->
  <text x="600" y="480" font-family="Arial, sans-serif" font-size="16" fill="#6b7280">csvdrop.com</text>
</svg>